<?xml version="1.0" encoding="UTF-8"?><svg id="Capa_2" xmlns="http://www.w3.org/2000/svg" xmlns:xlink="http://www.w3.org/1999/xlink" viewBox="0 0 186.68 155.04"><defs><style>.cls-1{fill:url(#Degradado_sin_nombre_6-2);}.cls-2{fill:url(#Degradado_sin_nombre_6);}.cls-3{fill:#020ba6;}.cls-4{fill:#f32613;}</style><linearGradient id="Degradado_sin_nombre_6" x1="33.54" y1="102.7" x2="83.83" y2="-5.16" gradientTransform="matrix(1, 0, 0, 1, 0, 0)" gradientUnits="userSpaceOnUse"><stop offset="0" stop-color="#040fda"/><stop offset="1" stop-color="#010874"/></linearGradient><linearGradient id="Degradado_sin_nombre_6-2" x1="96.76" y1="81.92" x2="132.92" y2="4.37" xlink:href="#Degradado_sin_nombre_6"/></defs><g id="Capa_1-2"><g><g><path class="cls-3" d="M5.26,130.19H27.31c1.54,0,2.83,.1,3.87,.3,1.04,.2,1.86,.52,2.45,.94s.97,.98,1.14,1.66c.17,.68,.16,1.48-.05,2.41l-1.43,6.81c-.48,2.23-1.46,3.78-2.92,4.65-1.42,.87-3.73,1.31-6.93,1.31H14.89l-1.4,6.59H0l5.26-24.67Zm12.3,5.56l-1.49,6.93h1.76c.67,0,1.17-.13,1.52-.39s.6-.72,.76-1.37l.7-3.37c.14-.65,.1-1.11-.12-1.38s-.66-.41-1.31-.41h-1.83Z"/><path class="cls-3" d="M44.05,130.19h13.49l-1.79,8.36h3.43l1.79-8.36h13.49l-5.26,24.67h-13.49l2.28-10.69h-3.43l-2.28,10.69h-13.49l5.26-24.67Z"/><path class="cls-3" d="M87.34,130.19h21.12l.82,24.67h-13.94l.33-5.35h-3.86l-1.88,5.35h-13.91l11.33-24.67Zm8.99,13.88l.36-8.38-3.22,8.38h2.86Z"/><path class="cls-3" d="M118.13,153.86c-1.25-.79-1.71-1.95-1.38-3.46l.94-4.47h13.79l-.36,1.73c-.24,1.17,.19,1.76,1.31,1.76,.59,0,1.05-.15,1.38-.44,.33-.29,.57-.79,.71-1.48,.08-.38,.13-.7,.14-.96,.01-.25-.05-.47-.17-.65-.12-.18-.32-.34-.59-.48-.27-.14-.65-.28-1.14-.42l-8.78-2.7c-2.02-.63-3.34-1.3-3.95-2.01-.59-.75-.75-1.74-.48-2.98l.55-2.64c.67-3.08,3.81-4.62,9.45-4.62h13.88c5.63,0,8.11,1.54,7.44,4.62l-.61,2.92h-13.7l.06-.3c.24-1.11-.22-1.67-1.4-1.67-.48,0-.9,.11-1.25,.34s-.56,.52-.64,.88c-.04,.18-.05,.34-.03,.47s.11,.26,.26,.38,.38,.25,.67,.38c.29,.13,.69,.28,1.2,.44l10.18,3.28c.63,.22,1.15,.47,1.58,.76,.42,.28,.75,.63,.96,1.03,.21,.41,.32,.89,.33,1.46,.01,.57-.06,1.24-.23,2l-.58,2.74c-.41,1.84-1.37,3.18-2.89,4.02-1.52,.84-3.75,1.26-6.68,1.26h-13.88c-2.81,0-4.84-.4-6.09-1.19Z"/><path class="cls-3" d="M159.95,130.19h26.73l-1.21,5.62h-13.25l-.58,2.7h12l-1.19,5.62h-12l-1.09,5.1h13.25l-1.19,5.62h-26.74l5.26-24.67Z"/></g><g><g><path class="cls-2" d="M55.62,82.54c.68-3.6-2.04-6.95-5.74-6.95h-13.71c-2.48,0-4.28-2.33-3.65-4.76L50.32,7.15C51.49,2.92,55.33,0,59.7,0h35.19l-14.68,24.96c-.93,2.07-2.98,3.39-5.24,3.39h-2.31c-.78,0-1.46,.44-1.75,1.17l-4.37,9.72c-.58,1.31,.34,2.77,1.75,2.77h4.37l-1.54,3.83c-1.36,3.11,.92,6.61,4.33,6.61h9.45l-34.77,57.99,5.49-27.9Z"/><path class="cls-1" d="M98.97,0l-13.07,21.88h30.76c8.54,.61,15.06,7.92,14.76,16.18-.29,7.85-6.6,13.53-14.7,14.1-6.21,0-21.63,.37-27.85,.37l-12.02,20.1h39.82c19.17-.69,34.56-15.13,36.38-32.37C155.13,20.48,138.91,1.06,116.66,0h-17.69Z"/></g><polygon class="cls-4" points="116.67 25.03 102.38 49.19 90.32 49.19 104.76 25.03 116.67 25.03"/><path class="cls-4" d="M128.09,35.68c.68,6.71-4.33,13.56-11.08,13.51h-10.74l14.14-23.62c4.13,1.41,7.19,5.49,7.68,10.11Z"/></g></g></g></svg>